<?xml version="1.0" encoding="utf-8"?>
<!-- Generator: Adobe Illustrator 25.0.0, SVG Export Plug-In . SVG Version: 6.00 Build 0)  -->
<svg version="1.1" id="Jeremy_Brown" xmlns="http://www.w3.org/2000/svg" xmlns:xlink="http://www.w3.org/1999/xlink" x="0px"
	 y="0px" viewBox="0 0 878 211" style="enable-background:new 0 0 878 211;" xml:space="preserve">
<style type="text/css">
	.st0 {#000000}
</style>
<g>
	<path class="st0" d="M18.2,141.5l3.1-3.6c2.4-2.2,3.6-1.2,5.1,0.5c2.5,2.8,7.9,7.9,14.5,7.9c9,0,18.3-6.6,18.3-22.5V52.7
		c0-1.5,1.2-2.8,2.9-2.8H68c1.6,0,2.8,1.3,2.8,2.8v70.8c0,20.8-12.6,32.8-30.1,32.8c-13,0-20.2-8-22.8-11.1
		C17.1,144,17.3,142.5,18.2,141.5z"/>
	<path class="st0" d="M117.3,93.3c15.7,0,27.1,11.7,27.1,27.4c0,1-0.2,3-0.3,4c-0.1,1.5-1.4,2.5-2.7,2.5H98.3
		c0.6,10,9.4,19.5,20.1,19.5c6.3,0,11.4-2.4,14.8-4.5c2.1-1.2,3-2,4.2-0.3c0.9,1.2,1.6,2.2,2.5,3.4c1,1.4,1.6,2.2-0.6,3.9
		c-3.6,2.8-11.7,6.9-22,6.9c-18.1,0-29.4-14.2-29.4-31.5C87.9,107.9,99.2,93.3,117.3,93.3z M134.1,119c-0.5-8.7-7.6-16.5-16.8-16.5
		c-10,0-17.8,7.2-18.9,16.5H134.1z"/>
	<path class="st0" d="M160.8,97.7c0-1.5,1.4-2.9,2.9-2.9h2.8c1.2,0,2.2,0.8,2.6,2.1l1.2,4.3c0,0,5.5-7.9,18-7.9
		c4.5,0,12,0.8,10.5,4.9l-1.8,5.1c-0.7,1.9-2.1,1.9-3.6,1.3c-1.4-0.6-3.6-1.2-5.8-1.2c-11.4,0-16.3,8.4-16.3,8.4v40
		c0,1.5-1.3,2.8-2.8,2.8h-4.6c-1.5,0-2.9-1.3-2.9-2.8V97.7z"/>
	<path class="st0" d="M235.5,93.3c15.7,0,27.1,11.7,27.1,27.4c0,1-0.2,3-0.3,4c-0.1,1.5-1.4,2.5-2.7,2.5h-43.2
		c0.6,10,9.4,19.5,20.1,19.5c6.3,0,11.4-2.4,14.8-4.5c2.1-1.2,3-2,4.2-0.3c0.9,1.2,1.6,2.2,2.5,3.4c1,1.4,1.6,2.2-0.6,3.9
		c-3.6,2.8-11.7,6.9-22,6.9c-18.1,0-29.4-14.2-29.4-31.5C206.1,107.9,217.4,93.3,235.5,93.3z M252.3,119
		c-0.5-8.7-7.6-16.5-16.8-16.5c-10,0-17.8,7.2-18.9,16.5H252.3z"/>
	<path class="st0" d="M279,97.7c0-1.5,1.4-2.9,2.9-2.9h2.8c1.4,0,2.1,0.6,2.4,1.8l1.4,4.6c0,0,7-7.9,19.5-7.9
		c8.9,0,15.3,3.4,19.2,9.7c0.8-0.6,10.3-9.7,22.3-9.7c17.4,0,23.2,11.4,23.2,27V152c0,1.5-1.4,2.8-2.9,2.8h-4.8
		c-1.5,0-2.9-1.3-2.9-2.8v-31.6c0-11.2-4.8-16.9-13.5-16.9c-9.8,0-16.2,6.4-18.3,8.4c0.4,2.5,0.8,5.4,0.8,8.5V152
		c0,1.5-1.4,2.8-2.9,2.8h-4.8c-1.5,0-2.9-1.3-2.9-2.8v-31.6c0-11.4-5.1-16.9-14.2-16.9c-10.6,0-17.1,8.5-17.1,8.5v40
		c0,1.5-1.3,2.8-2.8,2.8h-4.6c-1.5,0-2.9-1.3-2.9-2.8V97.7z"/>
	<path class="st0" d="M384.8,98.1c-0.9-1.9,0-3.3,2.2-3.3h6.6c1.2,0,2.1,0.8,2.5,1.6l22.2,45.9h0.1l21-45.9c0.5-0.9,1.5-1.6,2.5-1.6
		h5.7c2.2,0,3.3,1.5,2.2,3.4L404,198c-0.5,0.9-1.5,1.8-2.6,1.8h-5.5c-2.2,0-3.4-1.6-2.4-3.8l19.2-41.4L384.8,98.1z"/>
	<path class="st0" d="M501.2,52.7c0-1.5,1.2-2.8,2.8-2.8h32.8c18.3,0,30.7,11.8,30.7,27.6c0,11.5-7.7,19.9-14.7,24
		c8,3.3,18,10.6,18,24.4c0,16.8-13.3,28.9-32.7,28.9H504c-1.7,0-2.8-1.3-2.8-2.8V52.7z M539.4,144.8c10.9,0,18.9-8.2,18.9-19
		c0-10.6-9.8-18.4-21.4-18.4h-24.7v37.5H539.4z M536.9,96.9c11.5,0,18-8.2,18-18.7c0-10.8-6.4-18-18-18h-24.4v36.7H536.9z"/>
	<path class="st0" d="M588.3,97.7c0-1.5,1.3-2.9,2.8-2.9h2.9c1.2,0,2.2,0.8,2.5,2.1l1.2,4.3c0,0,5.5-7.9,18-7.9
		c4.5,0,12,0.8,10.5,4.9l-1.8,5.1c-0.8,1.9-2.1,1.9-3.6,1.3c-1.3-0.6-3.6-1.2-5.8-1.2c-11.4,0-16.3,8.4-16.3,8.4v40
		c0,1.5-1.3,2.8-2.8,2.8h-4.7c-1.5,0-2.8-1.3-2.8-2.8V97.7z"/>
	<path class="st0" d="M663.5,93.3c16.6,0,29.8,14.4,29.8,31.3c0,17.2-13.2,31.6-29.8,31.6s-29.8-14.4-29.8-31.6
		C633.6,107.7,646.8,93.3,663.5,93.3z M663.5,146.6c10.9,0,19.5-9.7,19.5-21.9c0-11.8-8.5-21.4-19.5-21.4s-19.5,9.6-19.5,21.4
		C644,136.8,652.5,146.6,663.5,146.6z"/>
	<path class="st0" d="M704.6,98.3c-0.6-2.1,0-3.4,2.2-3.4h4.7c1.3,0,2.4,0.8,2.7,1.6l10.9,39.6h0.2l16.9-41.2
		c0.3-0.8,1.2-1.5,2.5-1.5h0.8c1.3,0,2.2,0.8,2.5,1.5l16.8,41.4h0.2l10.8-39.7c0.3-0.9,1.3-1.6,2.5-1.6h4.6c2.2,0,2.8,1.4,2.2,3.4
		l-16.3,56.5c-0.3,0.9-1.3,1.5-2.5,1.5h-0.8c-1.3,0-2.2-0.8-2.5-1.5l-18.3-45l-17.7,45c-0.3,0.8-1.2,1.5-2.5,1.5h-0.8
		c-1.4,0-2.2-0.6-2.5-1.5L704.6,98.3z"/>
	<path class="st0" d="M800.9,97.7c0-1.5,1.3-2.9,2.8-2.9h2.9c1.3,0,2.1,0.6,2.4,1.8l1.4,4.6c0,0,8.5-7.9,21-7.9
		c17.4,0,23.2,11.4,23.2,27V152c0,1.5-1.4,2.8-2.9,2.8h-4.8c-1.5,0-2.8-1.3-2.8-2.8v-31.6c0-11.4-5.1-16.9-13.5-16.9
		c-11.2,0-19.3,8.5-19.3,8.5v40c0,1.5-1.3,2.8-2.8,2.8h-4.7c-1.5,0-2.8-1.3-2.8-2.8V97.7z"/>
</g>
</svg>
