<?xml version="1.0" encoding="utf-8"?>
<!-- Generator: Adobe Illustrator 25.0.0, SVG Export Plug-In . SVG Version: 6.00 Build 0)  -->
<svg version="1.1" id="Layer_1" xmlns="http://www.w3.org/2000/svg" xmlns:xlink="http://www.w3.org/1999/xlink" x="0px" y="0px"
	 viewBox="0 0 1019.5 165.6" style="enable-background:new 0 0 1019.5 165.6;" xml:space="preserve">
<style type="text/css">
	.st0{fill:#427475;}
	.st1{display:none;clip-path:url(#SVGID_3_);}
</style>
<g>
	<g>
		<g>
			<path id="SVGID_1_" class="st0" d="M29.4,114.1c-13.1,0-20.2-8-22.8-11.1c-0.8-1.2-0.6-2.7,0.3-3.8l3.1-3.6
				c2.4-2.3,3.6-1.2,5.1,0.4c2.5,2.9,7.9,8,14.5,8c9,0,18.3-6.6,18.3-22.5V10.4c0-1.5,1.2-2.8,2.8-2.8h5.9c1.6,0,2.9,1.3,2.9,2.8
				v70.8C59.5,102,46.9,114.1,29.4,114.1L29.4,114.1z M123.4,114.1c-13.1,0-20.3-8-22.8-11.1c-0.8-1.2-0.6-2.7,0.3-3.8l3.1-3.6
				c2.4-2.3,3.6-1.2,5.1,0.4c2.6,2.9,8,8,14.6,8c9,0,18.3-6.6,18.3-22.5V10.4c0-1.5,1.2-2.8,2.8-2.8h5.9c1.6,0,2.8,1.3,2.8,2.8v70.8
				C153.6,102,141,114.1,123.4,114.1L123.4,114.1z M264.7,59.1c7.9,3.3,18,10.7,18,24.5c0,16.8-13.4,29-32.7,29h-34.2
				c-1.7,0-2.9-1.4-2.9-2.9V10.4c0-1.5,1.2-2.8,2.9-2.8h32.8c18.3,0,30.8,11.9,30.8,27.6C279.4,46.7,271.8,55.1,264.7,59.1
				L264.7,59.1z M223.9,102.5h27.3c11,0,18.9-8.2,18.9-19c0-10.7-9.8-18.5-21.5-18.5h-24.8L223.9,102.5L223.9,102.5z M248.7,17.9
				h-24.5v36.8h24.5c11.5,0,18-8.2,18-18.8C266.7,25.1,260.2,17.9,248.7,17.9L248.7,17.9z M338.1,56l-1.8,5.1c-0.7,2-2.1,2-3.6,1.3
				c-1.3-0.6-3.6-1.2-5.8-1.2c-11.4,0-16.4,8.4-16.4,8.4v40c0,1.5-1.3,2.9-2.8,2.9H303c-1.5,0-2.8-1.4-2.8-2.9V55.3
				c0-1.5,1.3-2.8,2.8-2.8h2.9c1.2,0,2.2,0.7,2.5,2.1l1.2,4.4c0,0,5.6-8,18-8C332.1,51,339.6,51.8,338.1,56L338.1,56z M375.3,114.1
				c-16.7,0-29.9-14.4-29.9-31.7c0-17,13.2-31.4,29.9-31.4c16.6,0,29.9,14.4,29.9,31.4C405.1,99.6,391.9,114.1,375.3,114.1
				L375.3,114.1z M375.3,60.9c-11,0-19.5,9.6-19.5,21.5c0,12.1,8.5,21.9,19.5,21.9s19.5-9.8,19.5-21.9
				C394.8,70.5,386.2,60.9,375.3,60.9L375.3,60.9z M497.1,56l-16.4,56.6c-0.3,0.9-1.3,1.5-2.5,1.5h-0.8c-1.4,0-2.3-0.8-2.6-1.5
				l-18.3-45l-17.7,45c-0.3,0.7-1.2,1.5-2.5,1.5h-0.7c-1.4,0-2.3-0.6-2.6-1.5L416.4,56c-0.6-2.1,0-3.4,2.2-3.4h4.6
				c1.4,0,2.4,0.7,2.7,1.6l11,39.6h0.2L454,52.6c0.3-0.8,1.2-1.5,2.6-1.5h0.8c1.4,0,2.2,0.8,2.5,1.5L476.7,94h0.2l10.8-39.8
				c0.3-0.9,1.3-1.6,2.5-1.6h4.7C497.1,52.6,497.7,53.9,497.1,56L497.1,56z M563.5,112.6h-4.8c-1.5,0-2.8-1.4-2.8-2.9V78
				c0-11.4-5.1-16.9-13.5-16.9c-11.2,0-19.4,8.5-19.4,8.5v40c0,1.5-1.3,2.9-2.8,2.9h-4.6c-1.5,0-2.9-1.4-2.9-2.9V55.3
				c0-1.5,1.3-2.8,2.9-2.8h2.8c1.3,0,2.1,0.6,2.4,1.8l1.4,4.7c0,0,8.5-8,21-8c17.4,0,23.2,11.4,23.2,27v31.7
				C566.4,111.2,565,112.6,563.5,112.6L563.5,112.6z M661.2,112.6h-33.6c-1.5,0-2.7-1.4-2.7-2.9V10.4c0-1.5,1.2-2.8,2.7-2.8h33.6
				c29,0,52.7,23.5,52.7,52.4C713.8,89,690.1,112.6,661.2,112.6L661.2,112.6z M658.8,17.7h-22.5v84.5h22.5
				c24.6,0,42.5-17.5,42.5-42.3C701.2,35.3,683.4,17.7,658.8,17.7L658.8,17.7z M782.5,82.5c-0.2,1.5-1.3,2.6-2.7,2.6h-43.2
				c0.6,10,9.4,19.5,20.1,19.5c6.3,0,11.4-2.4,14.8-4.5c2.1-1.2,3-2,4.2-0.3c0.9,1.2,1.7,2.2,2.5,3.5c1.1,1.3,1.7,2.2-0.6,3.9
				c-3.6,2.9-11.7,6.9-22,6.9c-18.2,0-29.4-14.3-29.4-31.5c0-16.9,11.2-31.5,29.4-31.5c15.8,0,27.1,11.7,27.1,27.5
				C782.8,79.5,782.7,81.5,782.5,82.5L782.5,82.5z M755.7,60.2c-10.1,0-17.9,7.2-18.9,16.5h35.7C772,68,764.8,60.2,755.7,60.2
				L755.7,60.2z M830.7,62.7c-0.9,1.7-3,2.1-4.3,1.4c0,0-6.4-3.6-12-3.6c-6.8,0-8.5,3.5-8.5,6c0,5,4.9,7.2,11.1,10.2
				c10.3,5,19.7,9.6,19.7,20.4c0,8.7-8.4,17-20.7,17c-10,0-16.2-4.2-19.5-6.8c-0.8-0.6-1.2-2.1-0.8-3.2c0.6-0.9,1.7-3,2.1-3.8
				c0.8-1.2,2.4-1.5,4.1-0.5c0,0,6.4,5.2,14.1,5.2c6.2,0,9.8-3.2,9.8-7.2c0-5.2-4.5-7.6-13.2-12c-7.9-3.9-17.1-9.2-17.1-19.4
				c0-6.3,5.1-15.6,19-15.6c7.8,0,13.8,2.7,16.7,4.7c1.3,0.9,1.8,3,0.9,4.7L830.7,62.7L830.7,62.7z M857.5,24.8c-3.9,0-7-3.2-7-7
				c0-4,3.2-7.2,7-7.2c4.1,0,7.2,3.2,7.2,7.2C864.7,21.6,861.6,24.8,857.5,24.8L857.5,24.8z M855.4,52.6h4.7c1.5,0,2.8,1.3,2.8,2.8
				v54.3c0,1.5-1.3,2.9-2.8,2.9h-4.7c-1.5,0-2.8-1.4-2.8-2.9V55.4C852.6,53.9,853.9,52.6,855.4,52.6L855.4,52.6z M935.4,59l-8.1,1.6
				c0,0,6.8,5,6.8,16.8c0,13.7-9.8,25.5-25.2,25.5c-9.6,0-14.2-3.8-14.2-3.8s-6.6,3-6.6,9c0,3.8,2.7,7.3,8.2,7.3h21.6
				c12.6,0,22.5,6.2,22.5,19.2c0,12.4-12.9,24.3-31,24.3c-20.1,0-28.8-10.8-28.8-20.7c0-9,7.2-13,8.7-14v-0.5c-3.9-1-11-4.9-11-14.2
				c0-11.4,10.1-17.2,10.1-17.2s-4.8-6.2-4.8-15c0-13.9,9.8-26.4,25.3-26.4h25.3c1.7,0,2.9,1.2,2.9,2.9v2.5
				C937,57.5,936.4,58.9,935.4,59L935.4,59z M909.1,149.3c9.9,0,20.1-5.5,20.1-14.2c0-2-0.9-9.8-11.4-9.8c-5.5,0-11.1,0-16.7,0
				c0,0-10,2.7-10,11.5C891.1,144.1,898.9,149.3,909.1,149.3L909.1,149.3z M909,60.3c-9.2,0-15.8,6.9-15.8,16.8
				c0,9.9,6.6,16.8,15.8,16.8c9,0,15-6.9,15-16.8C924,67.2,918,60.3,909,60.3L909,60.3z M1003.9,112.6h-4.8c-1.5,0-2.8-1.4-2.8-2.9
				V78c0-11.4-5.1-16.9-13.5-16.9c-11.2,0-19.4,8.5-19.4,8.5v40c0,1.5-1.3,2.9-2.8,2.9h-4.7c-1.5,0-2.8-1.4-2.8-2.9V55.3
				c0-1.5,1.3-2.8,2.8-2.8h2.9c1.3,0,2.1,0.6,2.4,1.8l1.4,4.7c0,0,8.5-8,21-8c17.4,0,23.2,11.4,23.2,27v31.7
				C1006.8,111.2,1005.4,112.6,1003.9,112.6L1003.9,112.6z"/>
		</g>
		<g>
			<defs>
				<path id="SVGID_2_" d="M29.4,114.1c-13.1,0-20.2-8-22.8-11.1c-0.8-1.2-0.6-2.7,0.3-3.8l3.1-3.6c2.4-2.3,3.6-1.2,5.1,0.4
					c2.5,2.9,7.9,8,14.5,8c9,0,18.3-6.6,18.3-22.5V10.4c0-1.5,1.2-2.8,2.8-2.8h5.9c1.6,0,2.9,1.3,2.9,2.8v70.8
					C59.5,102,46.9,114.1,29.4,114.1L29.4,114.1z M123.4,114.1c-13.1,0-20.3-8-22.8-11.1c-0.8-1.2-0.6-2.7,0.3-3.8l3.1-3.6
					c2.4-2.3,3.6-1.2,5.1,0.4c2.6,2.9,8,8,14.6,8c9,0,18.3-6.6,18.3-22.5V10.4c0-1.5,1.2-2.8,2.8-2.8h5.9c1.6,0,2.8,1.3,2.8,2.8
					v70.8C153.6,102,141,114.1,123.4,114.1L123.4,114.1z M264.7,59.1c7.9,3.3,18,10.7,18,24.5c0,16.8-13.4,29-32.7,29h-34.2
					c-1.7,0-2.9-1.4-2.9-2.9V10.4c0-1.5,1.2-2.8,2.9-2.8h32.8c18.3,0,30.8,11.9,30.8,27.6C279.4,46.7,271.8,55.1,264.7,59.1
					L264.7,59.1z M223.9,102.5h27.3c11,0,18.9-8.2,18.9-19c0-10.7-9.8-18.5-21.5-18.5h-24.8L223.9,102.5L223.9,102.5z M248.7,17.9
					h-24.5v36.8h24.5c11.5,0,18-8.2,18-18.8C266.7,25.1,260.2,17.9,248.7,17.9L248.7,17.9z M338.1,56l-1.8,5.1c-0.7,2-2.1,2-3.6,1.3
					c-1.3-0.6-3.6-1.2-5.8-1.2c-11.4,0-16.4,8.4-16.4,8.4v40c0,1.5-1.3,2.9-2.8,2.9H303c-1.5,0-2.8-1.4-2.8-2.9V55.3
					c0-1.5,1.3-2.8,2.8-2.8h2.9c1.2,0,2.2,0.7,2.5,2.1l1.2,4.4c0,0,5.6-8,18-8C332.1,51,339.6,51.8,338.1,56L338.1,56z M375.3,114.1
					c-16.7,0-29.9-14.4-29.9-31.7c0-17,13.2-31.4,29.9-31.4c16.6,0,29.9,14.4,29.9,31.4C405.1,99.6,391.9,114.1,375.3,114.1
					L375.3,114.1z M375.3,60.9c-11,0-19.5,9.6-19.5,21.5c0,12.1,8.5,21.9,19.5,21.9s19.5-9.8,19.5-21.9
					C394.8,70.5,386.2,60.9,375.3,60.9L375.3,60.9z M497.1,56l-16.4,56.6c-0.3,0.9-1.3,1.5-2.5,1.5h-0.8c-1.4,0-2.3-0.8-2.6-1.5
					l-18.3-45l-17.7,45c-0.3,0.7-1.2,1.5-2.5,1.5h-0.7c-1.4,0-2.3-0.6-2.6-1.5L416.4,56c-0.6-2.1,0-3.4,2.2-3.4h4.6
					c1.4,0,2.4,0.7,2.7,1.6l11,39.6h0.2L454,52.6c0.3-0.8,1.2-1.5,2.6-1.5h0.8c1.4,0,2.2,0.8,2.5,1.5L476.7,94h0.2l10.8-39.8
					c0.3-0.9,1.3-1.6,2.5-1.6h4.7C497.1,52.6,497.7,53.9,497.1,56L497.1,56z M563.5,112.6h-4.8c-1.5,0-2.8-1.4-2.8-2.9V78
					c0-11.4-5.1-16.9-13.5-16.9c-11.2,0-19.4,8.5-19.4,8.5v40c0,1.5-1.3,2.9-2.8,2.9h-4.6c-1.5,0-2.9-1.4-2.9-2.9V55.3
					c0-1.5,1.3-2.8,2.9-2.8h2.8c1.3,0,2.1,0.6,2.4,1.8l1.4,4.7c0,0,8.5-8,21-8c17.4,0,23.2,11.4,23.2,27v31.7
					C566.4,111.2,565,112.6,563.5,112.6L563.5,112.6z M661.2,112.6h-33.6c-1.5,0-2.7-1.4-2.7-2.9V10.4c0-1.5,1.2-2.8,2.7-2.8h33.6
					c29,0,52.7,23.5,52.7,52.4C713.8,89,690.1,112.6,661.2,112.6L661.2,112.6z M658.8,17.7h-22.5v84.5h22.5
					c24.6,0,42.5-17.5,42.5-42.3C701.2,35.3,683.4,17.7,658.8,17.7L658.8,17.7z M782.5,82.5c-0.2,1.5-1.3,2.6-2.7,2.6h-43.2
					c0.6,10,9.4,19.5,20.1,19.5c6.3,0,11.4-2.4,14.8-4.5c2.1-1.2,3-2,4.2-0.3c0.9,1.2,1.7,2.2,2.5,3.5c1.1,1.3,1.7,2.2-0.6,3.9
					c-3.6,2.9-11.7,6.9-22,6.9c-18.2,0-29.4-14.3-29.4-31.5c0-16.9,11.2-31.5,29.4-31.5c15.8,0,27.1,11.7,27.1,27.5
					C782.8,79.5,782.7,81.5,782.5,82.5L782.5,82.5z M755.7,60.2c-10.1,0-17.9,7.2-18.9,16.5h35.7C772,68,764.8,60.2,755.7,60.2
					L755.7,60.2z M830.7,62.7c-0.9,1.7-3,2.1-4.3,1.4c0,0-6.4-3.6-12-3.6c-6.8,0-8.5,3.5-8.5,6c0,5,4.9,7.2,11.1,10.2
					c10.3,5,19.7,9.6,19.7,20.4c0,8.7-8.4,17-20.7,17c-10,0-16.2-4.2-19.5-6.8c-0.8-0.6-1.2-2.1-0.8-3.2c0.6-0.9,1.7-3,2.1-3.8
					c0.8-1.2,2.4-1.5,4.1-0.5c0,0,6.4,5.2,14.1,5.2c6.2,0,9.8-3.2,9.8-7.2c0-5.2-4.5-7.6-13.2-12c-7.9-3.9-17.1-9.2-17.1-19.4
					c0-6.3,5.1-15.6,19-15.6c7.8,0,13.8,2.7,16.7,4.7c1.3,0.9,1.8,3,0.9,4.7L830.7,62.7L830.7,62.7z M857.5,24.8c-3.9,0-7-3.2-7-7
					c0-4,3.2-7.2,7-7.2c4.1,0,7.2,3.2,7.2,7.2C864.7,21.6,861.6,24.8,857.5,24.8L857.5,24.8z M855.4,52.6h4.7c1.5,0,2.8,1.3,2.8,2.8
					v54.3c0,1.5-1.3,2.9-2.8,2.9h-4.7c-1.5,0-2.8-1.4-2.8-2.9V55.4C852.6,53.9,853.9,52.6,855.4,52.6L855.4,52.6z M935.4,59
					l-8.1,1.6c0,0,6.8,5,6.8,16.8c0,13.7-9.8,25.5-25.2,25.5c-9.6,0-14.2-3.8-14.2-3.8s-6.6,3-6.6,9c0,3.8,2.7,7.3,8.2,7.3h21.6
					c12.6,0,22.5,6.2,22.5,19.2c0,12.4-12.9,24.3-31,24.3c-20.1,0-28.8-10.8-28.8-20.7c0-9,7.2-13,8.7-14v-0.5
					c-3.9-1-11-4.9-11-14.2c0-11.4,10.1-17.2,10.1-17.2s-4.8-6.2-4.8-15c0-13.9,9.8-26.4,25.3-26.4h25.3c1.7,0,2.9,1.2,2.9,2.9v2.5
					C937,57.5,936.4,58.9,935.4,59L935.4,59z M909.1,149.3c9.9,0,20.1-5.5,20.1-14.2c0-2-0.9-9.8-11.4-9.8c-5.5,0-11.1,0-16.7,0
					c0,0-10,2.7-10,11.5C891.1,144.1,898.9,149.3,909.1,149.3L909.1,149.3z M909,60.3c-9.2,0-15.8,6.9-15.8,16.8
					c0,9.9,6.6,16.8,15.8,16.8c9,0,15-6.9,15-16.8C924,67.2,918,60.3,909,60.3L909,60.3z M1003.9,112.6h-4.8c-1.5,0-2.8-1.4-2.8-2.9
					V78c0-11.4-5.1-16.9-13.5-16.9c-11.2,0-19.4,8.5-19.4,8.5v40c0,1.5-1.3,2.9-2.8,2.9h-4.7c-1.5,0-2.8-1.4-2.8-2.9V55.3
					c0-1.5,1.3-2.8,2.8-2.8h2.9c1.3,0,2.1,0.6,2.4,1.8l1.4,4.7c0,0,8.5-8,21-8c17.4,0,23.2,11.4,23.2,27v31.7
					C1006.8,111.2,1005.4,112.6,1003.9,112.6L1003.9,112.6z"/>
			</defs>
			<clipPath id="SVGID_3_">
				<use xlink:href="#SVGID_2_"  style="overflow:visible;"/>
			</clipPath>
			<g class="st1">
				
					<image style="display:inline;overflow:visible;enable-background:new    ;" width="2400" height="792" xlink:href="97D33D962AA72AD9.jpg"  transform="matrix(0.4999 0 0 0.4999 -88.5475 -121.1315)">
				</image>
			</g>
		</g>
	</g>
</g>
</svg>
